<?xml version="1.0" encoding="UTF-8"?> <svg xmlns="http://www.w3.org/2000/svg" xmlns:xlink="http://www.w3.org/1999/xlink" width="708.66" height="219.69" viewBox="0 0 708.66 219.69"><defs><style>.a{fill:none;}.b{clip-path:url(#a);}.c{fill:url(#b);}.d{clip-path:url(#c);}.e{fill:url(#d);}.f{fill:#fff;}</style><clipPath id="a"><rect class="a" x="504.11" y="382" width="451.36" height="451.36"></rect></clipPath><linearGradient id="b" x1="914.42" y1="-19.37" x2="916.01" y2="-19.37" gradientTransform="matrix(0, 376.7, 376.7, 0, 8027.05, -344155.73)" gradientUnits="userSpaceOnUse"><stop offset="0" stop-color="#0f2d45"></stop><stop offset="0.75" stop-color="#e5077d"></stop><stop offset="1" stop-color="#e5077d"></stop></linearGradient><clipPath id="c"><rect class="a" x="0.09" y="382" width="449.91" height="449.91"></rect></clipPath><linearGradient id="d" x1="913.85" y1="-20.58" x2="915.44" y2="-20.58" gradientTransform="matrix(0, 376.7, 376.7, 0, 7979.46, -343942.48)" gradientUnits="userSpaceOnUse"><stop offset="0" stop-color="#004e57"></stop><stop offset="0.25" stop-color="#004e57"></stop><stop offset="1" stop-color="#019baf"></stop></linearGradient></defs><title>4</title><g class="b"><rect class="c" x="429.88" y="307.77" width="599.82" height="599.82" transform="translate(-188.44 365.36) rotate(-25)"></rect></g><g class="d"><rect class="e" x="-73.9" y="308.01" width="597.89" height="597.89" transform="translate(-235.43 151.98) rotate(-25)"></rect></g><path class="f" d="M708.66,24.09a20.55,20.55,0,1,0-20.55,20.56,20.57,20.57,0,0,0,20.55-20.56Zm-2.68,0A17.87,17.87,0,1,1,688.11,6.22,17.89,17.89,0,0,1,706,24.09Zm-9.84-5.35c0-2.67,0-6.69-7-6.69h-7.69a1.33,1.33,0,0,0-1.34,1.33V34.81a1.34,1.34,0,0,0,2.67,0V25.43h5.87l5,10a1.32,1.32,0,0,0,1.19.74,1.26,1.26,0,0,0,.6-.14,1.33,1.33,0,0,0,.6-1.79l-4.48-9c4.62-.88,4.62-4.74,4.62-6.51Zm-2.68,0c0,2.5-.27,4-4,4h-6.7v-8h6.36c2.06,0,3.37.38,3.89,1.11a5.47,5.47,0,0,1,.46,2.91Zm-104,58.5c0-4.84,10.4-7.73,27.81-7.73,12.51,0,28.45,3.31,41.59,8.65L663,79.85V55.76l-2-.68c-12.6-4.38-29-6.89-44.9-6.89-33.3,0-56.56,12.86-56.56,31.28,0,13.16,14.59,24.11,37.15,27.88l21.39,3.72c23.07,3.86,25.57,8.64,25.57,10.51,0,4.56-5.23,7.67-9.68,9.5-5.34,2.44-11.73,3.44-22,3.44-16.73,0-33.71-2.84-47.81-8l-4.07-1.48v22.45l2.07.64a165.82,165.82,0,0,0,48.42,7.18c14.92,0,27.71-1.94,38-5.76,15.74-5.77,25.52-16.4,25.52-27.75,0-7.45-4.43-15-11.56-19.8l0,0c-7.34-4.71-19.23-9-30.27-10.8l-19.78-3.54a58.41,58.41,0,0,1-10.77-2.38l-1.1-.34c-7.4-2-11.15-4.6-11.15-7.7ZM559.78,188.09a1.27,1.27,0,0,0-.18,1.16L568,215a1.57,1.57,0,0,0,1.54,1.18H572a1.48,1.48,0,0,0,1.49-1.19l8.41-25.65a1.28,1.28,0,0,0-.1-1.19,1.16,1.16,0,0,0-1-.46H579a1.52,1.52,0,0,0-1.44,1.2l-6.81,21.91L564,188.89a1.48,1.48,0,0,0-1.45-1.24h-1.73a1.17,1.17,0,0,0-1,.44Zm-8.51,25.72a8.59,8.59,0,0,0,2.34-6.33V196.31a8.06,8.06,0,0,0-8.6-8.66h-4.79A8.43,8.43,0,0,0,534,190a8.68,8.68,0,0,0-2.3,6.32v11.17a8.65,8.65,0,0,0,2.3,6.32,8.39,8.39,0,0,0,6.25,2.34H545a8.5,8.5,0,0,0,6.26-2.33Zm-1.94-6.38a4.9,4.9,0,0,1-1.16,3.52,4.46,4.46,0,0,1-3.39,1.19h-4.34a4.37,4.37,0,0,1-3.36-1.19,5,5,0,0,1-1.13-3.52V196.37a5,5,0,0,1,1.13-3.53,4.37,4.37,0,0,1,3.36-1.19h4.34a4.42,4.42,0,0,1,3.39,1.2,4.88,4.88,0,0,1,1.16,3.52v11.06Zm-33.14-54.08h26.36V49.54H516.19V153.35Zm0-120.75h26.36V9.21H516.19V32.6ZM520.59,190a8.25,8.25,0,0,0-6.16-2.34h-3.68a7.47,7.47,0,0,0-5.27,1.75v-.33a1.3,1.3,0,0,0-1.36-1.42h-1.61a1.29,1.29,0,0,0-1.31,1.42v25.66a1.28,1.28,0,0,0,1.31,1.41h1.61a1.29,1.29,0,0,0,1.36-1.41V196.37a4.47,4.47,0,0,1,1.3-3.49,5.13,5.13,0,0,1,3.69-1.23h3.62a4.3,4.3,0,0,1,3.35,1.21,5.08,5.08,0,0,1,1.14,3.56v18.31a1.3,1.3,0,0,0,1.36,1.41h1.62a1.27,1.27,0,0,0,1.3-1.41V196.31a8.73,8.73,0,0,0-2.27-6.32Zm-57-36.77L499.24,96V49.58L460.78,108.7c-6.74,10.49-11.55,19.57-11.55,19.57s-5.13-9.48-12.19-20.56L400.15,49.54H369.42l63.83,103.68Zm-94.18-49.09c0,11.29-1,15.31-4.88,20.51-3.58,4.71-13.37,7.64-25.56,7.64-14.47,0-26.51-5.43-29.26-13.15-1-3.33-1.68-11.16-1.68-20V49.54H280.63v54.12c0,15.24,1.13,19.87,4.78,26.93,10,19.14,37.23,26.09,53.08,26.09,18.94,0,36.63-7.92,45.76-15.78,6-5.13,9.26-9.8,11-17.07L369.43,82v22.13ZM277,214.73V181.66a1.3,1.3,0,0,0-1.36-1.41H274a1.27,1.27,0,0,0-1.3,1.41v7.74a7.59,7.59,0,0,0-5.33-1.75h-3.73a8.21,8.21,0,0,0-6.16,2.35,8.67,8.67,0,0,0-2.28,6.31v11.17a8.7,8.7,0,0,0,2.28,6.32,8.24,8.24,0,0,0,6.16,2.34h3.73a7.54,7.54,0,0,0,5.33-1.75v.34a1.27,1.27,0,0,0,1.3,1.41h1.62a1.3,1.3,0,0,0,1.36-1.41Zm-4.28-7.3a4.5,4.5,0,0,1-1.3,3.49,5.19,5.19,0,0,1-3.69,1.22H264a4.32,4.32,0,0,1-3.35-1.21,5.1,5.1,0,0,1-1.13-3.56v-11a5.12,5.12,0,0,1,1.13-3.56,4.32,4.32,0,0,1,3.35-1.21h3.74a5.13,5.13,0,0,1,3.69,1.23,4.47,4.47,0,0,1,1.3,3.49v11.06Zm-9.11-103.77V49.54H236.21v54.59c0,11.29-1,15.31-4.89,20.51-3.57,4.71-13.37,7.64-25.56,7.64-14.47,0-26.51-5.43-29.26-13.15-1-3.33-1.68-11.16-1.68-20V49.54H147.4v54.12c0,15.24,1.13,19.87,4.78,26.93,10,19.14,37.23,26.09,53.08,26.09,18.94,0,36.63-7.92,45.77-15.78,10.12-8.72,12.59-16,12.59-37.24Zm-116.22,78v33.07a1.27,1.27,0,0,0,1.31,1.41h1.61a1.29,1.29,0,0,0,1.36-1.41V200.58h12.68a1.28,1.28,0,0,0,1.36-1.36v-1.33a1.28,1.28,0,0,0-1.36-1.36H151.68V184.25h14.18a1.31,1.31,0,0,0,1.42-1.36V181.6a1.31,1.31,0,0,0-1.42-1.36H148.71a1.28,1.28,0,0,0-1.31,1.42ZM97.67,152.45l32.72-54.89v-48h-.13L93.33,107.76c-7.06,11.09-12.2,20.57-12.2,20.57s-4.82-9.08-11.56-19.58L31,49.54H0L67.69,155v24.92h30V152.45Zm77.53,36.62v25.66a1.27,1.27,0,0,0,1.3,1.41h1.62a1.3,1.3,0,0,0,1.36-1.41V197.09a5.66,5.66,0,0,1,1.33-4,4.75,4.75,0,0,1,3.71-1.43h2.55a1.28,1.28,0,0,0,1-.3,1.3,1.3,0,0,0,.4-1V189a1.28,1.28,0,0,0-1.36-1.36H185a8.36,8.36,0,0,0-4.23,1,8.52,8.52,0,0,0-1.26.91v-.51a1.31,1.31,0,0,0-1.36-1.42H176.5a1.28,1.28,0,0,0-1.3,1.42Zm22,.92a8.64,8.64,0,0,0-2.3,6.32v11.17a8.63,8.63,0,0,0,2.3,6.32,8.37,8.37,0,0,0,6.24,2.34H215a1.27,1.27,0,0,0,1.36-1.36V213.5a1.27,1.27,0,0,0-1.36-1.36H203.63a4.36,4.36,0,0,1-3.36-1.19,5,5,0,0,1-1.13-3.52v-3.34h16.24a1.33,1.33,0,0,0,1.42-1.41v-6.37a8.06,8.06,0,0,0-8.61-8.66H203.4a8.41,8.41,0,0,0-6.24,2.34Zm2,6.38a5,5,0,0,1,1.13-3.53,4.36,4.36,0,0,1,3.36-1.19H208a4.35,4.35,0,0,1,3.35,1.19,5,5,0,0,1,1.13,3.53v4H199.14v-4ZM227.35,190a8.64,8.64,0,0,0-2.3,6.32v11.17a8.63,8.63,0,0,0,2.3,6.32,8.37,8.37,0,0,0,6.24,2.34h11.64a1.27,1.27,0,0,0,1.36-1.36V213.5a1.27,1.27,0,0,0-1.36-1.36H233.81a4.38,4.38,0,0,1-3.35-1.18,5,5,0,0,1-1.13-3.53v-3.34h16.24a1.32,1.32,0,0,0,1.41-1.41v-6.37a8,8,0,0,0-8.6-8.66h-4.79a8.41,8.41,0,0,0-6.24,2.34Zm2,6.38a5,5,0,0,1,1.13-3.53,4.35,4.35,0,0,1,3.35-1.19h4.41a4.35,4.35,0,0,1,3.35,1.19,5,5,0,0,1,1.13,3.53v4H229.33v-4ZM288.4,190a8.65,8.65,0,0,0-2.31,6.32v11.17a8.62,8.62,0,0,0,2.31,6.32,8.37,8.37,0,0,0,6.24,2.34h4.79a8.51,8.51,0,0,0,6.27-2.33h0a8.63,8.63,0,0,0,2.33-6.33V196.31A8.62,8.62,0,0,0,305.7,190a8.51,8.51,0,0,0-6.27-2.34h-4.79A8.41,8.41,0,0,0,288.4,190Zm2,6.38a5,5,0,0,1,1.14-3.53,4.33,4.33,0,0,1,3.35-1.19h4.35a4.4,4.4,0,0,1,3.38,1.2,4.88,4.88,0,0,1,1.16,3.52v11.06a4.84,4.84,0,0,1-1.16,3.52,4.43,4.43,0,0,1-3.38,1.19h-4.35a4.37,4.37,0,0,1-3.35-1.18h0a5,5,0,0,1-1.14-3.52V196.37Zm26.69-7.3v25.66a1.27,1.27,0,0,0,1.31,1.41H320a1.29,1.29,0,0,0,1.36-1.41V196.37a4.46,4.46,0,0,1,1.29-3.49,5.28,5.28,0,0,1,3.7-1.23h2.23a4.33,4.33,0,0,1,3.35,1.19,5,5,0,0,1,1.14,3.58v18.31a1.29,1.29,0,0,0,1.36,1.41H336a1.29,1.29,0,0,0,1.36-1.41V196.59a4.81,4.81,0,0,1,1.34-3.62,5.05,5.05,0,0,1,3.71-1.32h2.06a4.33,4.33,0,0,1,3.35,1.19,5,5,0,0,1,1.14,3.58v18.31a1.29,1.29,0,0,0,1.36,1.41H352a1.29,1.29,0,0,0,1.36-1.41V196.31A8.73,8.73,0,0,0,351,190a8.32,8.32,0,0,0-6.22-2.34h-2.06a10.26,10.26,0,0,0-4.45,1,6.51,6.51,0,0,0-2.52,2.1c-1.47-2.09-3.75-3.15-6.79-3.15h-2.28a7.7,7.7,0,0,0-5.38,1.77v-.35a1.3,1.3,0,0,0-1.36-1.42h-1.61a1.28,1.28,0,0,0-1.31,1.42Zm60.1-7.47v1.29a1.31,1.31,0,0,0,1.42,1.36h7.88v30.48a1.3,1.3,0,0,0,1.36,1.41h1.62a1.27,1.27,0,0,0,1.3-1.41V184.25h7.89a1.31,1.31,0,0,0,1.42-1.36V181.6a1.31,1.31,0,0,0-1.42-1.36H378.58a1.31,1.31,0,0,0-1.42,1.36Zm31.1,8.39a8.64,8.64,0,0,0-2.3,6.32v11.17a8.63,8.63,0,0,0,2.3,6.32,8.37,8.37,0,0,0,6.24,2.34h4.79a8.51,8.51,0,0,0,6.27-2.33h0a8.59,8.59,0,0,0,2.34-6.33V196.31a8.06,8.06,0,0,0-8.61-8.66H414.5a8.41,8.41,0,0,0-6.24,2.34Zm2,6.38a5,5,0,0,1,1.13-3.53,4.36,4.36,0,0,1,3.36-1.19h4.34a4.42,4.42,0,0,1,3.39,1.2,4.88,4.88,0,0,1,1.16,3.52v11.06a4.9,4.9,0,0,1-1.16,3.52,4.46,4.46,0,0,1-3.39,1.19h-4.34a4.36,4.36,0,0,1-3.36-1.19,5,5,0,0,1-1.13-3.52V196.37Zm45.18-14.71v33.07a1.27,1.27,0,0,0,1.3,1.41h1.62a1.29,1.29,0,0,0,1.36-1.41V181.66a1.3,1.3,0,0,0-1.36-1.42h-1.62a1.28,1.28,0,0,0-1.3,1.42Zm14.76,7.41v25.66a1.27,1.27,0,0,0,1.3,1.41h1.62a1.29,1.29,0,0,0,1.36-1.41V196.37a4.46,4.46,0,0,1,1.29-3.49,5.28,5.28,0,0,1,3.7-1.23h3.62a4.32,4.32,0,0,1,3.35,1.21,5.08,5.08,0,0,1,1.14,3.56v18.31a1.29,1.29,0,0,0,1.36,1.41h1.61a1.27,1.27,0,0,0,1.31-1.41V196.31a8.77,8.77,0,0,0-2.27-6.32,8.28,8.28,0,0,0-6.17-2.34h-3.67a7.47,7.47,0,0,0-5.27,1.75v-.33a1.3,1.3,0,0,0-1.36-1.42h-1.62a1.28,1.28,0,0,0-1.3,1.42Zm120.16.92a8.64,8.64,0,0,0-2.3,6.32v11.17a8.63,8.63,0,0,0,2.3,6.32,8.37,8.37,0,0,0,6.24,2.34h3.57a7.5,7.5,0,0,0,5.27-1.7v.29a1.29,1.29,0,0,0,1.36,1.41h1.61a1.28,1.28,0,0,0,1.31-1.41V189.07a1.29,1.29,0,0,0-1.31-1.42H596.58a8.41,8.41,0,0,0-6.24,2.34Zm2,6.43a5.08,5.08,0,0,1,1.14-3.56,4.3,4.3,0,0,1,3.35-1.21h8.61v15.77a4.5,4.5,0,0,1-1.3,3.49,5.17,5.17,0,0,1-3.69,1.22h-3.62a4.3,4.3,0,0,1-3.35-1.21,5.06,5.06,0,0,1-1.14-3.56v-11ZM616.56,189v1.34a1.25,1.25,0,0,0,1.36,1.3h3.15v16a8.09,8.09,0,0,0,2.47,6.23,9.09,9.09,0,0,0,6.41,2.26h2.39a1.27,1.27,0,0,0,1.36-1.36V213.5a1.27,1.27,0,0,0-1.36-1.36h-2.17a4.91,4.91,0,0,1-3.55-1.18,4.5,4.5,0,0,1-1.22-3.42V191.65h6.39a1.26,1.26,0,0,0,1.36-1.3V189a1.28,1.28,0,0,0-1.36-1.36H625.4v-6a1.29,1.29,0,0,0-1.36-1.41h-1.61a1.29,1.29,0,0,0-1.36,1.41v6h-3.15a1.28,1.28,0,0,0-1.36,1.36Zm26.64,1a8.64,8.64,0,0,0-2.3,6.32v11.17a8.63,8.63,0,0,0,2.3,6.32,8.37,8.37,0,0,0,6.24,2.34h11.64a1.27,1.27,0,0,0,1.36-1.36V213.5a1.27,1.27,0,0,0-1.36-1.36H649.67a4.39,4.39,0,0,1-3.36-1.18,5,5,0,0,1-1.13-3.53v-3.34h16.24a1.32,1.32,0,0,0,1.41-1.41v-6.37a8,8,0,0,0-8.6-8.66h-4.79A8.41,8.41,0,0,0,643.2,190Zm2,6.38a5,5,0,0,1,1.13-3.53,4.36,4.36,0,0,1,3.36-1.19h4.4a4.35,4.35,0,0,1,3.35,1.19,5,5,0,0,1,1.13,3.53v4H645.18v-4Z"></path></svg> 